<svg width="93" height="13" viewBox="0 0 93 13" fill="none" xmlns="http://www.w3.org/2000/svg">
<path d="M86.5 0C82.9055 0 80 2.9055 80 6.5C80 10.0945 82.9055 13 86.5 13C90.0945 13 93 10.0945 93 6.5C93 2.9055 90.0945 0 86.5 0ZM86.5 11.7C83.6335 11.7 81.3 9.3665 81.3 6.5C81.3 3.6335 83.6335 1.3 86.5 1.3C89.3665 1.3 91.7 3.6335 91.7 6.5C91.7 9.3665 89.3665 11.7 86.5 11.7Z" fill="#726E6C"/>
<path d="M66.5 0C62.9055 0 60 2.9055 60 6.5C60 10.0945 62.9055 13 66.5 13C70.0945 13 73 10.0945 73 6.5C73 2.9055 70.0945 0 66.5 0ZM66.5 11.7C63.6335 11.7 61.3 9.3665 61.3 6.5C61.3 3.6335 63.6335 1.3 66.5 1.3C69.3665 1.3 71.7 3.6335 71.7 6.5C71.7 9.3665 69.3665 11.7 66.5 11.7Z" fill="#726E6C"/>
<path d="M46.5 0C42.9055 0 40 2.9055 40 6.5C40 10.0945 42.9055 13 46.5 13C50.0945 13 53 10.0945 53 6.5C53 2.9055 50.0945 0 46.5 0ZM46.5 11.7C43.6335 11.7 41.3 9.3665 41.3 6.5C41.3 3.6335 43.6335 1.3 46.5 1.3C49.3665 1.3 51.7 3.6335 51.7 6.5C51.7 9.3665 49.3665 11.7 46.5 11.7Z" fill="#726E6C"/>
<path d="M6.5 0C2.912 0 0 2.912 0 6.5C0 10.088 2.912 13 6.5 13C10.088 13 13 10.088 13 6.5C13 2.912 10.088 0 6.5 0Z" fill="#726E6C"/>
<path d="M26.5 0C22.912 0 20 2.912 20 6.5C20 10.088 22.912 13 26.5 13C30.088 13 33 10.088 33 6.5C33 2.912 30.088 0 26.5 0Z" fill="#726E6C"/>
</svg>
