<svg width="79" height="34" viewBox="0 0 79 34" fill="none" xmlns="http://www.w3.org/2000/svg">
<path d="M0.984 34V0.399998H16.248C19.896 0.399998 23.112 1.104 25.896 2.512C28.68 3.888 30.856 5.824 32.424 8.32C33.992 10.816 34.776 13.776 34.776 17.2C34.776 20.592 33.992 23.552 32.424 26.08C30.856 28.576 28.68 30.528 25.896 31.936C23.112 33.312 19.896 34 16.248 34H0.984ZM8.76 27.616H15.864C18.104 27.616 20.04 27.2 21.672 26.368C23.336 25.504 24.616 24.288 25.512 22.72C26.44 21.152 26.904 19.312 26.904 17.2C26.904 15.056 26.44 13.216 25.512 11.68C24.616 10.112 23.336 8.912 21.672 8.08C20.04 7.216 18.104 6.784 15.864 6.784H8.76V27.616ZM40.6403 34V0.399998H47.0723L61.3763 24.112H57.9683L72.0323 0.399998H78.4163L78.5123 34H71.2163L71.1683 11.584H72.5123L61.2803 30.448H57.7763L46.3043 11.584H47.9363V34H40.6403Z" fill="white"/>
</svg>
