<svg width="34" height="31" viewBox="0 0 34 31" fill="none" xmlns="http://www.w3.org/2000/svg">
<path d="M30.8314 0.0027314C30.3498 0.0236814 29.9078 0.162198 29.5196 0.315231C29.1609 0.456496 27.8728 0.997894 25.8217 1.8582C23.7705 2.71851 21.0527 3.85916 18.1556 5.0776C12.3616 7.51447 5.85059 10.2556 2.51436 11.6596C2.3998 11.7074 1.93451 11.8498 1.42061 12.2423C0.90553 12.6357 0.333374 13.4895 0.333374 14.4233C0.333374 15.1766 0.709397 15.9437 1.16345 16.3829C1.61751 16.8222 2.07768 17.0275 2.46228 17.1805V17.1772C3.76233 17.6951 7.64469 19.2487 8.56905 19.6186C8.89693 20.6012 10.3045 24.8076 10.6394 25.8654H10.6361C10.8728 26.614 11.1035 27.102 11.4239 27.5092C11.5841 27.7129 11.7753 27.8974 12.0098 28.0431C12.0998 28.099 12.1994 28.1424 12.2995 28.1831C12.3135 28.189 12.3278 28.1905 12.3418 28.1961L12.3028 28.1863C12.3318 28.198 12.3578 28.2152 12.3874 28.2254C12.4356 28.242 12.469 28.2414 12.5339 28.2547C12.7622 28.3249 12.9902 28.3719 13.2012 28.3719C14.1072 28.3719 14.6628 27.8803 14.6628 27.8803L14.6986 27.8543L18.6114 24.5437L23.403 28.9773C23.4906 29.1009 24.1762 30.0288 25.7631 30.0288C26.7099 30.0288 27.4586 29.5601 27.9375 29.0685C28.4165 28.5769 28.7149 28.0739 28.849 27.3921L28.8523 27.3888C28.9592 26.8385 33.5463 3.80481 33.5463 3.80481L33.5365 3.84388C33.6793 3.20663 33.7214 2.59038 33.5528 1.96237C33.3841 1.33436 32.929 0.721482 32.3809 0.399867C31.8328 0.0782522 31.313 -0.0182193 30.8314 0.0027314ZM30.1739 3.65182C29.9926 4.56187 25.8835 25.2052 25.6296 26.5001L18.709 20.0971L14.0313 24.0522L15.3269 18.9871C15.3269 18.9871 24.2644 9.94021 24.8028 9.41354C25.2361 8.99187 25.3269 8.84406 25.3269 8.69739C25.3269 8.50239 25.2265 8.36211 24.9948 8.36211C24.7865 8.36211 24.5036 8.56174 24.3536 8.65508C22.4475 9.84342 14.329 14.4699 10.3366 16.741C10.0964 16.6447 6.48919 15.1962 4.54561 14.42C8.00272 12.9651 13.9288 10.4718 19.448 8.15052C22.3445 6.93229 25.0616 5.7906 27.1107 4.93112C28.8405 4.2056 29.7428 3.82995 30.1739 3.65182ZM25.5808 26.7378H25.584C25.5839 26.7381 25.5809 26.747 25.5808 26.7475C25.5829 26.7368 25.5792 26.7462 25.5808 26.7378Z" fill="#DF9265"/>
</svg>
